<?xml version="1.0" encoding="utf-8"?>
<!-- Generator: Adobe Illustrator 16.0.0, SVG Export Plug-In . SVG Version: 6.00 Build 0)  -->
<!DOCTYPE svg PUBLIC "-//W3C//DTD SVG 1.1//EN" "http://www.w3.org/Graphics/SVG/1.1/DTD/svg11.dtd">
<svg version="1.1" id="Layer_1" xmlns="http://www.w3.org/2000/svg" xmlns:xlink="http://www.w3.org/1999/xlink" x="0px" y="0px"
	 width="612px" height="792px" viewBox="0 0 612 792" enable-background="new 0 0 612 792" xml:space="preserve">
<g>
	<g>
		<path opacity="0.06" fill="#F5F5F5" d="M570.24,418.625c0-28.668-112.218-51.912-250.644-51.912
			c-138.442,0-250.655,23.244-250.655,51.912c0,28.662,112.213,51.902,250.655,51.902
			C458.022,470.527,570.24,447.287,570.24,418.625z"/>
		<path opacity="0.0913" fill="#F4F4F4" d="M563.784,418.732c0,28.043-109.265,50.779-244.048,50.779
			c-134.798,0-244.057-22.736-244.057-50.779c0-28.046,109.259-50.786,244.057-50.786
			C454.52,367.947,563.784,390.687,563.784,418.732z"/>
		<path opacity="0.1227" fill="#F3F3F3" d="M557.327,418.842c0,27.422-106.311,49.654-237.451,49.654
			c-131.154,0-237.46-22.232-237.46-49.654c0-27.426,106.306-49.662,237.46-49.662C451.017,369.18,557.327,391.416,557.327,418.842z
			"/>
		<path opacity="0.154" fill="#F2F2F2" d="M550.872,418.951c0,26.799-103.358,48.529-230.854,48.529
			c-127.511,0-230.864-21.73-230.864-48.529c0-26.804,103.353-48.537,230.864-48.537
			C447.514,370.415,550.872,392.147,550.872,418.951z"/>
		<path opacity="0.1853" fill="#F1F1F1" d="M544.416,419.059c0,26.18-100.405,47.406-224.258,47.406
			c-123.868,0-224.268-21.227-224.268-47.406c0-26.182,100.4-47.41,224.268-47.41C444.011,371.649,544.416,392.877,544.416,419.059z
			"/>
		<path opacity="0.2167" fill="#F0F0F0" d="M537.959,419.168c0,25.559-97.451,46.281-217.661,46.281
			c-120.224,0-217.67-20.723-217.67-46.281c0-25.561,97.446-46.286,217.67-46.286C440.508,372.882,537.959,393.607,537.959,419.168z
			"/>
		<path opacity="0.248" fill="#EFEFEF" d="M531.503,419.275c0,24.938-94.499,45.156-211.064,45.156
			c-116.581,0-211.073-20.219-211.073-45.156c0-24.939,94.492-45.159,211.073-45.159
			C437.004,374.116,531.503,394.336,531.503,419.275z"/>
		<path opacity="0.2793" fill="#EEEEEE" d="M525.047,419.385c0,24.316-91.545,44.033-204.468,44.033
			c-112.938,0-204.477-19.717-204.477-44.033c0-24.318,91.539-44.035,204.477-44.035
			C433.502,375.35,525.047,395.066,525.047,419.385z"/>
		<path opacity="0.3107" fill="#EDEDED" d="M518.592,419.494c0,23.695-88.593,42.906-197.872,42.906
			c-109.294,0-197.88-19.211-197.88-42.906c0-23.697,88.586-42.91,197.88-42.91C429.999,376.584,518.592,395.797,518.592,419.494z"
			/>
		<path opacity="0.342" fill="#ECECEC" d="M512.135,419.602c0,23.074-85.639,41.783-191.275,41.783
			c-105.649,0-191.283-18.709-191.283-41.783c0-23.075,85.633-41.784,191.283-41.784
			C426.496,377.818,512.135,396.527,512.135,419.602z"/>
		<path opacity="0.3733" fill="#EBEBEC" d="M505.679,419.711c0,22.453-82.687,40.658-184.68,40.658
			c-102.006,0-184.685-18.205-184.685-40.658c0-22.455,82.679-40.659,184.685-40.659
			C422.992,379.052,505.679,397.256,505.679,419.711z"/>
		<path opacity="0.4047" fill="#EAEAEB" d="M499.223,419.818c0,21.834-79.732,39.535-178.082,39.535
			c-98.363,0-178.09-17.701-178.09-39.535c0-21.832,79.727-39.533,178.09-39.533C419.49,380.286,499.223,397.986,499.223,419.818z"
			/>
		<path opacity="0.436" fill="#E9E9EA" d="M492.767,419.928c0,21.213-76.779,38.41-171.485,38.41
			c-94.72,0-171.492-17.197-171.492-38.41c0-21.211,76.772-38.408,171.492-38.408C415.987,381.52,492.767,398.717,492.767,419.928z"
			/>
		<path opacity="0.4673" fill="#E8E8E9" d="M486.311,420.037c0,20.59-73.826,37.285-164.89,37.285
			c-91.076,0-164.895-16.695-164.895-37.285s73.819-37.284,164.895-37.284C412.484,382.753,486.311,399.447,486.311,420.037z"/>
		<path opacity="0.4987" fill="#E7E7E8" d="M479.854,420.145c0,19.971-70.873,36.162-158.292,36.162
			c-87.433,0-158.299-16.191-158.299-36.162c0-19.968,70.866-36.157,158.299-36.157C408.98,383.987,479.854,400.177,479.854,420.145
			z"/>
		<path opacity="0.53" fill="#E6E6E7" d="M473.398,420.254c0,19.348-67.92,35.037-151.696,35.037
			c-83.79,0-151.702-15.689-151.702-35.037s67.913-35.033,151.702-35.033C405.479,385.221,473.398,400.906,473.398,420.254z"/>
		<path opacity="0.5613" fill="#E5E6E6" d="M466.941,420.361c0,18.729-64.967,33.914-145.1,33.914
			c-80.145,0-145.104-15.186-145.104-33.914c0-18.725,64.959-33.906,145.104-33.906
			C401.975,386.456,466.941,401.637,466.941,420.361z"/>
		<path opacity="0.5927" fill="#E4E5E5" d="M460.485,420.471c0,18.107-62.014,32.789-138.502,32.789
			c-76.503,0-138.509-14.682-138.509-32.789c0-18.104,62.006-32.782,138.509-32.782
			C398.472,387.689,460.485,402.367,460.485,420.471z"/>
		<path opacity="0.624" fill="#E3E4E4" d="M454.029,420.58c0,17.484-59.061,31.664-131.906,31.664
			c-72.859,0-131.911-14.18-131.911-31.664c0-17.482,59.052-31.657,131.911-31.657C394.969,388.923,454.029,403.098,454.029,420.58z
			"/>
		<path opacity="0.6553" fill="#E2E3E4" d="M447.573,420.688c0,16.865-56.107,30.541-125.31,30.541
			c-69.216,0-125.315-13.676-125.315-30.541c0-16.859,56.099-30.531,125.315-30.531
			C391.466,390.157,447.573,403.828,447.573,420.688z"/>
		<path opacity="0.6867" fill="#E2E2E3" d="M441.117,420.797c0,16.244-53.154,29.416-118.714,29.416
			c-65.571,0-118.717-13.172-118.717-29.416c0-16.24,53.146-29.406,118.717-29.406C387.963,391.391,441.117,404.557,441.117,420.797
			z"/>
		<path opacity="0.718" fill="#E1E1E2" d="M434.661,420.906c0,15.621-50.2,28.291-112.117,28.291
			c-61.929,0-112.121-12.67-112.121-28.291c0-15.619,50.192-28.282,112.121-28.282C384.461,392.625,434.661,405.287,434.661,420.906
			z"/>
		<path opacity="0.7493" fill="#E0E0E1" d="M428.205,421.014c0,15.002-47.248,27.168-105.521,27.168
			c-58.285,0-105.524-12.166-105.524-27.168c0-14.996,47.239-27.155,105.524-27.155
			C380.957,393.859,428.205,406.018,428.205,421.014z"/>
		<path opacity="0.7807" fill="#DFDFE0" d="M421.749,421.123c0,14.381-44.295,26.043-98.924,26.043
			c-54.642,0-98.928-11.662-98.928-26.043c0-14.375,44.286-26.031,98.928-26.031C377.454,395.092,421.749,406.748,421.749,421.123z"
			/>
		<path opacity="0.812" fill="#DEDFDF" d="M415.293,421.23c0,13.76-41.342,24.92-92.328,24.92c-50.998,0-92.33-11.16-92.33-24.92
			c0-13.752,41.332-24.904,92.33-24.904C373.951,396.326,415.293,407.479,415.293,421.23z"/>
		<path opacity="0.8433" fill="#DDDEDF" d="M408.836,421.34c0,13.139-38.388,23.795-85.729,23.795
			c-47.355,0-85.734-10.656-85.734-23.795c0-13.133,38.379-23.779,85.734-23.779C370.448,397.561,408.836,408.207,408.836,421.34z"
			/>
		<path opacity="0.8747" fill="#DCDDDE" d="M402.38,421.447c0,12.52-35.435,22.672-79.134,22.672
			c-43.711,0-79.137-10.152-79.137-22.672c0-12.51,35.425-22.653,79.137-22.653C366.945,398.794,402.38,408.938,402.38,421.447z"/>
		<path opacity="0.906" fill="#DBDCDD" d="M395.924,421.557c0,11.898-32.481,21.547-72.538,21.547
			c-40.066,0-72.54-9.648-72.54-21.547c0-11.889,32.473-21.529,72.54-21.529C363.442,400.027,395.924,409.668,395.924,421.557z"/>
		<path opacity="0.9373" fill="#DADBDC" d="M389.468,421.666c0,11.275-29.528,20.422-65.941,20.422
			c-36.423,0-65.942-9.146-65.942-20.422c0-11.268,29.519-20.404,65.942-20.404C359.939,401.262,389.468,410.398,389.468,421.666z"
			/>
		<path opacity="0.9687" fill="#D9DADB" d="M383.012,421.773c0,10.656-26.575,19.299-59.345,19.299
			c-32.78,0-59.346-8.643-59.346-19.299c0-10.646,26.566-19.277,59.346-19.277C356.437,402.496,383.012,411.127,383.012,421.773z"/>
		<path fill="#D8D9DA" d="M376.556,421.883c0,10.035-23.622,18.174-52.748,18.174c-29.137,0-52.75-8.139-52.75-18.174
			c0-10.025,23.612-18.152,52.75-18.152C352.934,403.73,376.556,411.857,376.556,421.883z"/>
	</g>
	<linearGradient id="SVGID_1_" gradientUnits="userSpaceOnUse" x1="250.0459" y1="160.4263" x2="531.8109" y2="261.5381">
		<stop  offset="0" style="stop-color:#231F20"/>
		<stop  offset="0.0578" style="stop-color:#312E2F"/>
		<stop  offset="0.1288" style="stop-color:#3E3C3D"/>
		<stop  offset="0.1989" style="stop-color:#474648"/>
		<stop  offset="0.2672" style="stop-color:#4C4C4E"/>
		<stop  offset="0.3315" style="stop-color:#4E4E50"/>
		<stop  offset="1" style="stop-color:#231F20"/>
	</linearGradient>
	<path fill="url(#SVGID_1_)" d="M210.959,262.162c0,0,0.124-2.429,1.852-5.797c1.718-3.363,13.069-22.697,22.761-51.053
		c9.688-28.335,25.013-43.841,32.395-50.177c7.372-6.325,16.461-14.996,19.719-18.601c3.257-3.61,19.197-11.311,27.3-15.342
		c8.104-4.043,50.741-22.169,83.065-15.639c32.335,6.536,47.833,8.966,52.399,11.074c4.571,2.108,12.251,2.43,22.416,14.479
		c10.167,12.043,24.938,15.359,40.736,29.595c15.799,14.236,41.533,35.92,44.257,69.764c2.725,33.848-0.689,54.5,0.221,72.652
		c0.916,18.157-0.667,48.306-11.47,48.217c-10.816-0.08-14.63-8.75-32.189-9.819c-17.549-1.076-37.791-0.854-46.68-6.832
		c0,0-36.649-11.348-45.916-14.764c-9.257-3.426-69.884-25.995-76.922-28.741c-7.038-2.741-36.885-16.035-70.147-24.399
		C241.501,258.415,219.73,258.357,210.959,262.162z"/>
	<linearGradient id="SVGID_2_" gradientUnits="userSpaceOnUse" x1="201.1665" y1="176.6987" x2="305.3994" y2="438.6177">
		<stop  offset="0" style="stop-color:#231F20"/>
		<stop  offset="0.0578" style="stop-color:#312E2F"/>
		<stop  offset="0.1288" style="stop-color:#3E3C3D"/>
		<stop  offset="0.1989" style="stop-color:#474648"/>
		<stop  offset="0.2672" style="stop-color:#4C4C4E"/>
		<stop  offset="0.3315" style="stop-color:#4E4E50"/>
		<stop  offset="1" style="stop-color:#231F20"/>
	</linearGradient>
	<path fill="url(#SVGID_2_)" d="M478.44,337.245c0,0-33.583-9.219-45.527-13.509c-11.949-4.281-84.481-30.881-100.355-37.639
		c-15.864-6.746-89.366-34.918-121.249-23.992c-31.894,10.926-102.176,33.796-116.494,38.487
		c-14.318,4.686-37.817,11.174-40.418,33.58c-2.596,22.401,16.58,30.012,27.85,32.336c11.271,2.335,27.09-0.701,34.365-2.377
		c7-1.614,31.873-9.256,46.115-16.245l0.064,0.053l1.12-0.643c0.14-0.074,0.28-0.147,0.425-0.21l-0.027-0.017l0.743-0.421
		l-2.149-1.492c-0.145,0.09-0.484,0.269-0.856,0.459l-0.064-0.048c0,0-40.364,19.145-68.106,19.091
		c-27.748-0.048-33.272-14.29-32.443-21.985c0.824-7.695,11.222-29.621,38.625-27.46c27.392,2.177,77.998,40.506,84.304,44.66
		c6.311,4.153,53.384,42.366,76.199,50.769c22.815,8.391,52.986,12.518,88.192,0.379c35.194-12.135,112.783-62.975,115.578-65.142
		C467.138,343.717,479.744,338.752,478.44,337.245z"/>
	<path opacity="0.48" fill="#231F20" d="M59.352,352.366c0,0-6.736-12.07,1.098-28.262c7.84-16.197,31.636-25.141,62.355-11.48
		c30.698,13.673,80.12,51.169,90.308,58.569c10.183,7.401,48.134,37.692,77.168,41.323c29.045,3.637,47.37,3.037,73.497-9.381
		c26.105-12.408,61.957-32.806,61.957-32.806s-59.157,38.546-96.156,45.729c-36.988,7.174-66.636-3.322-77.647-9.287
		c-11.001-5.983-31.49-19.988-36.605-23.819c-5.11-3.827-32.465-24.208-35.405-26.064c-2.945-1.854-33.918-23.47-45.442-29.368
		c-11.502-5.893-31.458-16.64-50.966-10.437c-19.52,6.188-22.277,25.969-22.25,27.766c0.038,1.798,0.469,12.297,16.375,17.757
		c0,0,11.75,2.51,17.226,2.146C94.864,364.753,68.952,367.34,59.352,352.366z"/>
	<path fill="#231F20" d="M163.029,345.566c0,0-24.387,9.556-31.043,11.823c-6.645,2.261-29.956,7.689-36.687,7.39
		c-6.72-0.312-23.025-0.122-31.005-11.222c-7.991-11.1,2.203-24.746,9.413-31.044c7.205-6.31,25.276-11.59,44.705-2.493
		C137.834,329.138,147.946,335.083,163.029,345.566z"/>
	<path opacity="0.4" fill="#A8AAAD" d="M459.244,120.385c0,0,15.202,12.27,15.864,38.46c0.672,26.18-2.833,68.494-8.53,84.871
		c-5.713,16.371-21.28,74.786-29.643,81.533l1.324,0.047c0,0,7.598-9.73,20.501-52.507c12.911-42.777,13.951-46.03,15.383-64.309
		c1.443-18.27,3.635-43.104,1.008-58.922C472.523,133.735,464.651,124.417,459.244,120.385z"/>
	<path opacity="0.4" fill="#A8AAAD" d="M334.587,113.421c0,0-27.946,31.514-37.994,53.484c-10.032,21.962-36.196,67.37-41.123,72.53
		c-4.943,5.166-10.215,20.962-10.215,20.962l-1.066-0.09c0,0,4.448-12.823,7.027-16.324c2.574-3.504,26.574-39.804,37.429-63.185
		C299.495,157.422,309.742,139.807,334.587,113.421z"/>
	<path opacity="0.16" fill="#B9BABC" d="M467.742,334.683l-29.482-9.387c0,0,4.792-8.165,6.542-12.386
		c1.757-4.232,19.531-53.635,24.55-76.257c5.014-22.622,5.249-31.766,6.893-56.771c1.631-25.004-0.964-46.931-17.371-60.124
		c0,0,7.354,3.121,15.502,12.998c8.137,9.877,20.511,12.539,34.49,23.718c13.968,11.18,24.29,29.985,25.652,32.852
		c1.347,2.89,10.592,21.521,12.875,33.191c2.3,11.659,2.924,17.572,3.402,23.514c0.447,5.939,3.339,31.766,6.947,52.501
		c0,0,0.598,16.234,0.468,20.719c-0.135,4.486-1.286,15.497-2.703,20.704c-1.421,5.208-4.119,13.203-12.034,11.032
		c-7.91-2.182-9.989-4.09-14.329-5.977c-4.356-1.882-12.982-4.122-22.434-3.979C497.25,341.155,473.244,339.311,467.742,334.683z"/>
	<path opacity="0.39" fill="#226BA3" d="M558.13,301.819c0,0-6.849-42.729-7.625-60.129c-0.791-17.409-11.157-54.415-36.261-80.321
		c0,0,34.764,28.489,41.274,55.038C562.033,242.945,556.461,291.768,558.13,301.819z"/>
	<linearGradient id="SVGID_3_" gradientUnits="userSpaceOnUse" x1="406.4727" y1="108.7471" x2="432.0508" y2="108.7471">
		<stop  offset="0" style="stop-color:#231F20"/>
		<stop  offset="0.0578" style="stop-color:#312E2F"/>
		<stop  offset="0.1288" style="stop-color:#3E3C3D"/>
		<stop  offset="0.1989" style="stop-color:#474648"/>
		<stop  offset="0.2672" style="stop-color:#4C4C4E"/>
		<stop  offset="0.3315" style="stop-color:#4E4E50"/>
		<stop  offset="1" style="stop-color:#231F20"/>
	</linearGradient>
	<path fill="url(#SVGID_3_)" d="M406.818,107.597c0,0-1.653-2.056,2.272-2.166c3.941-0.116,18.433-0.1,22.96,6.656
		C432.051,112.087,419.371,110.238,406.818,107.597z"/>
	<path opacity="0.26" fill="#226BA3" d="M210.609,262.151c0,0,15.653-9.029,70.965,7.506
		c55.258,16.519,120.78,44.548,142.228,51.374c21.44,6.819,49.625,15.712,56.093,18.095c0,0-52.89-16.298-62.679-19.603
		c-9.784-3.315-96.71-36.216-114.97-42.208C283.981,271.328,236.951,255.864,210.609,262.151z"/>
</g>
<g>
	<g>
		<path opacity="0.06" fill="#F5F5F5" d="M575.964,680.945c0-8.08-50.497-14.631-112.788-14.631s-112.783,6.551-112.783,14.631
			c0,8.086,50.492,14.637,112.783,14.637S575.964,689.031,575.964,680.945z"/>
		<path opacity="0.0913" fill="#F4F4F4" d="M573.059,680.975c0,7.912-49.168,14.322-109.82,14.322
			c-60.65,0-109.814-6.41-109.814-14.322c0-7.902,49.164-14.313,109.814-14.313C523.891,666.662,573.059,673.072,573.059,680.975z"
			/>
		<path opacity="0.1227" fill="#F3F3F3" d="M570.153,681.006c0,7.736-47.839,14.004-106.852,14.004
			c-59.012,0-106.847-6.268-106.847-14.004c0-7.729,47.835-13.996,106.847-13.996C522.314,667.01,570.153,673.277,570.153,681.006z"
			/>
		<path opacity="0.154" fill="#F2F2F2" d="M567.248,681.037c0,7.561-46.51,13.686-103.883,13.686
			c-57.372,0-103.878-6.125-103.878-13.686c0-7.555,46.506-13.68,103.878-13.68C520.738,667.357,567.248,673.482,567.248,681.037z"
			/>
		<path opacity="0.1853" fill="#F1F1F1" d="M564.343,681.068c0,7.385-45.181,13.367-100.914,13.367s-100.91-5.982-100.91-13.367
			c0-7.379,45.177-13.363,100.91-13.363S564.343,673.689,564.343,681.068z"/>
		<ellipse opacity="0.2167" fill="#F0F0F0" cx="463.494" cy="681.1" rx="97.944" ry="13.051"/>
		<path opacity="0.248" fill="#EFEFEF" d="M558.532,681.129c0,7.035-42.522,12.734-94.978,12.734
			c-52.454,0-94.974-5.699-94.974-12.734c0-7.029,42.52-12.729,94.974-12.729C516.01,668.4,558.532,674.1,558.532,681.129z"/>
		<ellipse opacity="0.2793" fill="#EEEEEE" cx="463.62" cy="681.16" rx="92.007" ry="12.416"/>
		<ellipse opacity="0.3107" fill="#EDEDED" cx="463.684" cy="681.191" rx="89.039" ry="12.1"/>
		<path opacity="0.342" fill="#ECECEC" d="M549.816,681.221c0,6.512-38.535,11.783-86.072,11.783
			c-47.536,0-86.068-5.271-86.068-11.783c0-6.504,38.532-11.777,86.068-11.777C511.281,669.443,549.816,674.717,549.816,681.221z"/>
		<ellipse opacity="0.3733" fill="#EBEBEC" cx="463.809" cy="681.252" rx="83.102" ry="11.465"/>
		<ellipse opacity="0.4047" fill="#EAEAEB" cx="463.872" cy="681.283" rx="80.134" ry="11.146"/>
		<path opacity="0.436" fill="#E9E9EA" d="M541.102,681.314c0,5.984-34.549,10.83-77.168,10.83c-42.617,0-77.164-4.846-77.164-10.83
			c0-5.98,34.547-10.828,77.164-10.828C506.553,670.486,541.102,675.334,541.102,681.314z"/>
		<path opacity="0.4673" fill="#E8E8E9" d="M538.195,681.344c0,5.811-33.219,10.514-74.198,10.514
			c-40.978,0-74.196-4.703-74.196-10.514c0-5.805,33.219-10.51,74.196-10.51C504.977,670.834,538.195,675.539,538.195,681.344z"/>
		<ellipse opacity="0.4987" fill="#E7E7E8" cx="464.061" cy="681.375" rx="71.229" ry="10.195"/>
		<path opacity="0.53" fill="#E6E6E7" d="M532.385,681.406c0,5.459-30.561,9.879-68.262,9.879c-37.699,0-68.26-4.42-68.26-9.879
			c0-5.455,30.561-9.877,68.26-9.877C501.824,671.529,532.385,675.951,532.385,681.406z"/>
		<path opacity="0.5613" fill="#E5E6E6" d="M529.479,681.438c0,5.283-29.231,9.561-65.293,9.561c-36.06,0-65.291-4.277-65.291-9.561
			c0-5.281,29.231-9.561,65.291-9.561C500.248,671.877,529.479,676.156,529.479,681.438z"/>
		<path opacity="0.5927" fill="#E4E5E5" d="M526.574,681.467c0,5.109-27.902,9.244-62.324,9.244c-34.42,0-62.323-4.135-62.323-9.244
			c0-5.104,27.903-9.242,62.323-9.242C498.672,672.225,526.574,676.363,526.574,681.467z"/>
		<path opacity="0.624" fill="#E3E4E4" d="M523.67,681.498c0,4.934-26.573,8.928-59.356,8.928c-32.781,0-59.355-3.994-59.355-8.928
			c0-4.93,26.574-8.926,59.355-8.926C497.097,672.572,523.67,676.568,523.67,681.498z"/>
		<path opacity="0.6553" fill="#E2E3E4" d="M520.765,681.529c0,4.758-25.244,8.609-56.388,8.609
			c-31.143,0-56.388-3.852-56.388-8.609c0-4.756,25.245-8.609,56.388-8.609C495.521,672.92,520.765,676.773,520.765,681.529z"/>
		<path opacity="0.6867" fill="#E2E2E3" d="M517.859,681.561c0,4.582-23.915,8.291-53.42,8.291c-29.502,0-53.419-3.709-53.419-8.291
			c0-4.58,23.917-8.293,53.419-8.293C493.944,673.268,517.859,676.98,517.859,681.561z"/>
		<path opacity="0.718" fill="#E1E1E2" d="M514.953,681.592c0,4.406-22.585,7.973-50.451,7.973c-27.862,0-50.449-3.566-50.449-7.973
			s22.587-7.977,50.449-7.977C492.368,673.615,514.953,677.186,514.953,681.592z"/>
		<path opacity="0.7493" fill="#E0E0E1" d="M512.049,681.621c0,4.232-21.257,7.658-47.483,7.658
			c-26.223,0-47.481-3.426-47.481-7.658c0-4.23,21.259-7.656,47.481-7.656C490.792,673.965,512.049,677.391,512.049,681.621z"/>
		<path opacity="0.7807" fill="#DFDFE0" d="M509.144,681.652c0,4.057-19.929,7.34-44.515,7.34c-24.583,0-44.514-3.283-44.514-7.34
			c0-4.055,19.931-7.34,44.514-7.34C489.215,674.313,509.144,677.598,509.144,681.652z"/>
		<ellipse opacity="0.812" fill="#DEDFDF" cx="464.692" cy="681.684" rx="41.546" ry="7.023"/>
		<path opacity="0.8433" fill="#DDDEDF" d="M503.333,681.713c0,3.707-17.27,6.707-38.577,6.707c-21.305,0-38.578-3-38.578-6.707
			c0-3.705,17.273-6.707,38.578-6.707C486.063,675.006,503.333,678.008,503.333,681.713z"/>
		<path opacity="0.8747" fill="#DCDDDE" d="M500.428,681.744c0,3.531-15.94,6.389-35.609,6.389c-19.665,0-35.609-2.857-35.609-6.389
			c0-3.529,15.944-6.389,35.609-6.389C484.487,675.355,500.428,678.215,500.428,681.744z"/>
		<path opacity="0.906" fill="#DBDCDD" d="M497.522,681.775c0,3.355-14.611,6.07-32.641,6.07c-18.025,0-32.641-2.715-32.641-6.07
			s14.615-6.072,32.641-6.072C482.911,675.703,497.522,678.42,497.522,681.775z"/>
		<path opacity="0.9373" fill="#DADBDC" d="M494.617,681.807c0,3.18-13.282,5.754-29.672,5.754c-16.387,0-29.673-2.574-29.673-5.754
			c0-3.182,13.286-5.756,29.673-5.756C481.335,676.051,494.617,678.625,494.617,681.807z"/>
		<path opacity="0.9687" fill="#D9DADB" d="M491.712,681.836c0,3.006-11.953,5.438-26.704,5.438
			c-14.746,0-26.704-2.432-26.704-5.438c0-3.004,11.958-5.438,26.704-5.438C479.759,676.398,491.712,678.832,491.712,681.836z"/>
		<path fill="#D8D9DA" d="M488.807,681.867c0,2.83-10.624,5.119-23.735,5.119c-13.107,0-23.736-2.289-23.736-5.119
			s10.629-5.121,23.736-5.121C478.183,676.746,488.807,679.037,488.807,681.867z"/>
	</g>
	<path fill="#231F20" d="M566.81,556.855c2.063,12.059,3.5,46.746,1.476,75.424c-1.383,19.551-4.377,36.313-9.881,41.213
		c-19.105,17.037-50.794-13.492-96.85-13.318c-44.679,0.168-76.108,29.762-94.713,18.02c-9.278-5.859-13.193-25.678-14.258-48.064
		c-1.314-27.697,1.744-59.311,4.432-73.273c7.483-38.93,46.771-71.729,104.474-71.729
		C519.214,485.127,560.128,517.785,566.81,556.855z"/>
	<path fill="none" d="M460.057,567.682c-27.649,0-50.072,24.805-50.072,42.477h100.141
		C510.125,592.486,487.708,567.682,460.057,567.682z"/>
	<linearGradient id="SVGID_4_" gradientUnits="userSpaceOnUse" x1="347.0977" y1="557.7021" x2="573.6172" y2="557.7021">
		<stop  offset="0" style="stop-color:#231F20"/>
		<stop  offset="0.0117" style="stop-color:#252122"/>
		<stop  offset="0.1649" style="stop-color:#373536"/>
		<stop  offset="0.3045" style="stop-color:#444244"/>
		<stop  offset="0.4245" style="stop-color:#4B4B4D"/>
		<stop  offset="0.5112" style="stop-color:#4E4E50"/>
		<stop  offset="1" style="stop-color:#231F20"/>
	</linearGradient>
	<path fill="url(#SVGID_4_)" d="M567.209,555.453c-6.683-39.078-47.597-71.734-105.326-71.734
		c-57.697,0-96.984,32.799-104.475,71.734c-2.682,13.957-11.496,47.99-10.177,75.684l225.97,0.549
		C575.232,603.002,569.271,567.508,567.209,555.453z"/>
	<path fill="#231F20" d="M409.984,610.158c0-17.672,22.423-42.477,50.072-42.477c27.651,0,50.068,24.805,50.068,42.477H409.984z"/>
	
		<linearGradient id="SVGID_5_" gradientUnits="userSpaceOnUse" x1="412.8457" y1="730.3203" x2="513.377" y2="730.3203" gradientTransform="matrix(1.0102 0 0 0.8211 -7.5786 19.6064)">
		<stop  offset="0" style="stop-color:#231F20"/>
		<stop  offset="0.0117" style="stop-color:#252122"/>
		<stop  offset="0.1649" style="stop-color:#373536"/>
		<stop  offset="0.3045" style="stop-color:#444244"/>
		<stop  offset="0.4245" style="stop-color:#4B4B4D"/>
		<stop  offset="0.5112" style="stop-color:#4E4E50"/>
		<stop  offset="1" style="stop-color:#231F20"/>
	</linearGradient>
	<rect x="409.479" y="606.859" fill="url(#SVGID_5_)" width="101.557" height="24.826"/>
	<path opacity="0.4" fill="#A8AAAD" d="M464.984,487.33c0,0-4.55,18.789-3.882,30.201c0.673,11.404-0.135,35.957-1.023,39.098
		c-0.895,3.152,0.383,11.006,0.383,11.006l-0.453,0.152c0,0-0.968-6.408-0.679-8.4c0.291-1.998,2.191-22.176,1.546-34.352
		C460.23,512.867,460.585,503.32,464.984,487.33z"/>
	
		<linearGradient id="SVGID_6_" gradientUnits="userSpaceOnUse" x1="523.8848" y1="483.7695" x2="542.0264" y2="483.7695" gradientTransform="matrix(1.3158 0 0 1 -235.3818 0)">
		<stop  offset="0" style="stop-color:#231F20"/>
		<stop  offset="0.0117" style="stop-color:#252122"/>
		<stop  offset="0.1649" style="stop-color:#373536"/>
		<stop  offset="0.3045" style="stop-color:#444244"/>
		<stop  offset="0.4245" style="stop-color:#4B4B4D"/>
		<stop  offset="0.5112" style="stop-color:#4E4E50"/>
		<stop  offset="1" style="stop-color:#231F20"/>
	</linearGradient>
	<path fill="url(#SVGID_6_)" d="M477.816,483.766c0,3.143-5.343,5.689-11.938,5.689c-6.59,0-11.933-2.547-11.933-5.689
		c0-3.135,5.343-5.682,11.933-5.682C472.474,478.084,477.816,480.631,477.816,483.766z"/>
	<path fill="#47484A" d="M475.436,481.199c0,1.57-4.264,2.836-9.53,2.836c-5.261,0-9.526-1.266-9.526-2.836s4.266-2.848,9.526-2.848
		C471.172,478.352,475.436,479.629,475.436,481.199z"/>
	<path opacity="0.4" fill="#A8AAAD" d="M476.744,486.111c0,0,23.606,6.104,38.545,18.838c11.356,9.682,34.532,45.461,37.704,57.451
		c3.296,12.477,10.252,59.213,7.608,69.285h1.362c0,0,1.626-9.262-3.134-42.15c-4.761-32.896-6.903-33.205-16.063-48.986
		c-6.882-11.865-17.495-27.352-26.655-35.869C507.266,496.453,482.582,486.111,476.744,486.111z"/>
	<path opacity="0.4" fill="#A8AAAD" d="M455.744,486.111c0,0-23.606,6.104-38.539,18.838c-11.355,9.682-34.532,45.461-37.703,57.451
		c-3.295,12.477-10.253,59.213-7.609,69.285h-1.362c0,0-1.626-9.262,3.134-42.15c4.761-32.896,6.897-33.205,16.058-48.986
		c6.887-11.865,17.5-27.352,26.66-35.869C425.224,496.453,449.907,486.111,455.744,486.111z"/>
</g>
<g>
	<g>
		<ellipse opacity="0.06" fill="#F5F5F5" cx="155.407" cy="669.602" rx="112.786" ry="14.637"/>
		<path opacity="0.0913" fill="#F4F4F4" d="M265.288,669.633c0,7.906-49.163,14.314-109.815,14.314s-109.82-6.408-109.82-14.314
			c0-7.908,49.168-14.32,109.82-14.32S265.288,661.725,265.288,669.633z"/>
		<path opacity="0.1227" fill="#F3F3F3" d="M262.383,669.662c0,7.732-47.834,14-106.847,14c-59.012,0-106.852-6.268-106.852-14
			s47.84-14.002,106.852-14.002C214.549,655.66,262.383,661.93,262.383,669.662z"/>
		<ellipse opacity="0.154" fill="#F2F2F2" cx="155.597" cy="669.693" rx="103.881" ry="13.682"/>
		<ellipse opacity="0.1853" fill="#F1F1F1" cx="155.661" cy="669.725" rx="100.913" ry="13.365"/>
		<ellipse opacity="0.2167" fill="#F0F0F0" cx="155.724" cy="669.754" rx="97.944" ry="13.049"/>
		<ellipse opacity="0.248" fill="#EFEFEF" cx="155.787" cy="669.785" rx="94.976" ry="12.73"/>
		<ellipse opacity="0.2793" fill="#EEEEEE" cx="155.85" cy="669.816" rx="92.008" ry="12.414"/>
		<ellipse opacity="0.3107" fill="#EDEDED" cx="155.914" cy="669.848" rx="89.04" ry="12.098"/>
		<ellipse opacity="0.342" fill="#ECECEC" cx="155.977" cy="669.877" rx="86.071" ry="11.781"/>
		<ellipse opacity="0.3733" fill="#EBEBEC" cx="156.039" cy="669.908" rx="83.103" ry="11.463"/>
		<ellipse opacity="0.4047" fill="#EAEAEB" cx="156.103" cy="669.939" rx="80.134" ry="11.146"/>
		<ellipse opacity="0.436" fill="#E9E9EA" cx="156.167" cy="669.969" rx="77.166" ry="10.83"/>
		<ellipse opacity="0.4673" fill="#E8E8E9" cx="156.229" cy="670" rx="74.198" ry="10.514"/>
		<path opacity="0.4987" fill="#E7E7E8" d="M227.522,670.029c0,5.631-31.888,10.197-71.229,10.197
			c-39.34,0-71.23-4.566-71.23-10.197c0-5.629,31.89-10.193,71.23-10.193C195.635,659.836,227.522,664.4,227.522,670.029z"/>
		<ellipse opacity="0.53" fill="#E6E6E7" cx="156.356" cy="670.061" rx="68.261" ry="9.881"/>
		<ellipse opacity="0.5613" fill="#E5E6E6" cx="156.419" cy="670.092" rx="65.292" ry="9.563"/>
		<path opacity="0.5927" fill="#E4E5E5" d="M218.807,670.123c0,5.104-27.899,9.246-62.323,9.246
			c-34.422,0-62.325-4.143-62.325-9.246c0-5.105,27.903-9.244,62.325-9.244C190.907,660.879,218.807,665.018,218.807,670.123z"/>
		<ellipse opacity="0.624" fill="#E3E4E4" cx="156.546" cy="670.152" rx="59.356" ry="8.93"/>
		<path opacity="0.6553" fill="#E2E3E4" d="M212.997,670.184c0,4.756-25.243,8.613-56.387,8.613
			c-31.144,0-56.389-3.857-56.389-8.613c0-4.754,25.245-8.607,56.389-8.607C187.754,661.576,212.997,665.43,212.997,670.184z"/>
		<ellipse opacity="0.6867" fill="#E2E2E3" cx="156.673" cy="670.215" rx="53.419" ry="8.295"/>
		<path opacity="0.718" fill="#E1E1E2" d="M207.187,670.244c0,4.406-22.584,7.979-50.45,7.979s-50.452-3.572-50.452-7.979
			c0-4.402,22.586-7.973,50.452-7.973S207.187,665.842,207.187,670.244z"/>
		<path opacity="0.7493" fill="#E0E0E1" d="M204.281,670.275c0,4.23-21.255,7.662-47.481,7.662c-26.226,0-47.483-3.432-47.483-7.662
			c0-4.229,21.258-7.656,47.483-7.656C183.026,662.619,204.281,666.047,204.281,670.275z"/>
		<ellipse opacity="0.7807" fill="#DFDFE0" cx="156.863" cy="670.307" rx="44.514" ry="7.344"/>
		<path opacity="0.812" fill="#DEDFDF" d="M198.472,670.336c0,3.881-18.598,7.029-41.545,7.029c-22.948,0-41.547-3.148-41.547-7.029
			c0-3.877,18.599-7.021,41.547-7.021C179.874,663.314,198.472,666.459,198.472,670.336z"/>
		<path opacity="0.8433" fill="#DDDEDF" d="M195.566,670.367c0,3.705-17.269,6.711-38.577,6.711
			c-21.308,0-38.578-3.006-38.578-6.711c0-3.703,17.271-6.703,38.578-6.703C178.298,663.664,195.566,666.664,195.566,670.367z"/>
		<path opacity="0.8747" fill="#DCDDDE" d="M192.662,670.396c0,3.531-15.94,6.396-35.609,6.396s-35.609-2.865-35.609-6.396
			c0-3.525,15.94-6.385,35.609-6.385S192.662,666.871,192.662,670.396z"/>
		<path opacity="0.906" fill="#DBDCDD" d="M189.756,670.428c0,3.355-14.611,6.078-32.64,6.078c-18.03,0-32.642-2.723-32.642-6.078
			c0-3.352,14.612-6.068,32.642-6.068C175.146,664.359,189.756,667.076,189.756,670.428z"/>
		<path opacity="0.9373" fill="#DADBDC" d="M186.851,670.459c0,3.18-13.282,5.762-29.671,5.762c-16.391,0-29.674-2.582-29.674-5.762
			c0-3.178,13.283-5.752,29.674-5.752C173.569,664.707,186.851,667.281,186.851,670.459z"/>
		<path opacity="0.9687" fill="#D9DADB" d="M183.946,670.49c0,3.004-11.953,5.443-26.704,5.443s-26.704-2.439-26.704-5.443
			c0-3.002,11.953-5.436,26.704-5.436S183.946,667.488,183.946,670.49z"/>
		<path fill="#D8D9DA" d="M181.041,670.52c0,2.83-10.624,5.129-23.735,5.129c-13.112,0-23.736-2.299-23.736-5.129
			c0-2.826,10.625-5.117,23.736-5.117C170.417,665.402,181.041,667.693,181.041,670.52z"/>
	</g>
	
		<linearGradient id="SVGID_7_" gradientUnits="userSpaceOnUse" x1="239.3379" y1="485.9219" x2="257.4805" y2="485.9219" gradientTransform="matrix(1.2522 0 0 1 -155.1611 0)">
		<stop  offset="0" style="stop-color:#231F20"/>
		<stop  offset="0.0578" style="stop-color:#312E2F"/>
		<stop  offset="0.1288" style="stop-color:#3E3C3D"/>
		<stop  offset="0.1989" style="stop-color:#474648"/>
		<stop  offset="0.2672" style="stop-color:#4C4C4E"/>
		<stop  offset="0.3315" style="stop-color:#4E4E50"/>
		<stop  offset="1" style="stop-color:#231F20"/>
	</linearGradient>
	<path fill="url(#SVGID_7_)" d="M167.256,485.922c0,3.137-5.088,5.682-11.362,5.682c-6.268,0-11.356-2.545-11.356-5.682
		s5.088-5.682,11.356-5.682C162.168,480.24,167.256,482.785,167.256,485.922z"/>
	<linearGradient id="SVGID_8_" gradientUnits="userSpaceOnUse" x1="36.0366" y1="565.7705" x2="271.3867" y2="565.7705">
		<stop  offset="0" style="stop-color:#231F20"/>
		<stop  offset="0.0117" style="stop-color:#252122"/>
		<stop  offset="0.1649" style="stop-color:#373536"/>
		<stop  offset="0.3045" style="stop-color:#444244"/>
		<stop  offset="0.4245" style="stop-color:#4B4B4D"/>
		<stop  offset="0.5112" style="stop-color:#4E4E50"/>
		<stop  offset="1" style="stop-color:#231F20"/>
	</linearGradient>
	<path fill="url(#SVGID_8_)" d="M258.453,556.449c3.468,20.277,21.522,75.146,7.942,87.248
		c-19.105,17.033-78.698-40.939-112.444-40.939c-27.268,0-89.813,54.021-108.417,42.268c-20.758-13.109-1.734-63.34,3.118-88.576
		c7.49-38.936,46.778-71.738,104.475-71.738C210.856,484.711,251.771,517.373,258.453,556.449z"/>
	<path opacity="0.4" fill="#A8AAAD" d="M155.162,484.842c0,0-5.891,24.35-5.029,39.141c0.877,14.779-0.178,46.604-1.331,50.678
		c-1.152,4.08,0.501,14.252,0.501,14.252l-0.592,0.201c0,0-1.249-8.301-0.873-10.891c0.372-2.582,2.838-28.734,2.003-44.51
		C149.007,517.932,149.465,505.572,155.162,484.842z"/>
	<path opacity="0.4" fill="#A8AAAD" d="M166.702,485.754c0,0,21.437,4.428,34.43,15.037c9.886,8.076,29.035,38.65,31.205,49.082
		c2.251,10.846,5.703,51.717,2.617,60.688l1.254-0.055c0,0,2.1-8.211-0.21-36.984c-2.299-28.768-4.259-28.951-11.723-42.482
		c-5.611-10.172-14.437-23.381-22.362-30.512C194.261,493.637,172.097,485.521,166.702,485.754z"/>
	<path opacity="0.4" fill="#A8AAAD" d="M144.204,484.93c0,0-21.097,5.361-34.635,16.551c-10.295,8.518-31.646,39.969-34.715,50.512
		c-3.198,10.967-10.376,52.059-8.244,60.908h-1.212c0,0-1.244-8.139,3.694-37.055c4.922-28.92,6.833-29.189,15.309-43.066
		c6.365-10.438,16.127-24.047,24.441-31.535C116.872,494.014,139.019,484.926,144.204,484.93z"/>
	<g>
		<linearGradient id="SVGID_9_" gradientUnits="userSpaceOnUse" x1="38.3701" y1="633.9297" x2="269.0503" y2="633.9297">
			<stop  offset="0" style="stop-color:#231F20"/>
			<stop  offset="0.0578" style="stop-color:#312E2F"/>
			<stop  offset="0.1288" style="stop-color:#3E3C3D"/>
			<stop  offset="0.1989" style="stop-color:#474648"/>
			<stop  offset="0.2672" style="stop-color:#4C4C4E"/>
			<stop  offset="0.3315" style="stop-color:#4E4E50"/>
			<stop  offset="1" style="stop-color:#231F20"/>
		</linearGradient>
		<path opacity="0.9" fill="url(#SVGID_9_)" d="M259.637,627.084c13.414,10.988,8.556,37.063,8.556,43.346
			c0,16.076-49.593-30.512-113.312-30.512c-63.723,0-114.14,44.295-114.14,28.215c0-6.1-7.803-28.959,4.895-39.619
			c20.785-17.441,69.684-34.457,109.245-34.457C193.695,594.057,238.723,609.949,259.637,627.084z"/>
		
			<linearGradient id="SVGID_10_" gradientUnits="userSpaceOnUse" x1="38.3701" y1="595.2529" x2="269.0503" y2="595.2529" gradientTransform="matrix(1 0 0 1.1386 0 -48.8262)">
			<stop  offset="0" style="stop-color:#231F20"/>
			<stop  offset="0.0578" style="stop-color:#312E2F"/>
			<stop  offset="0.1288" style="stop-color:#3E3C3D"/>
			<stop  offset="0.1989" style="stop-color:#474648"/>
			<stop  offset="0.2672" style="stop-color:#4C4C4E"/>
			<stop  offset="0.3315" style="stop-color:#4E4E50"/>
			<stop  offset="1" style="stop-color:#231F20"/>
		</linearGradient>
		<path fill="url(#SVGID_10_)" d="M259.637,622.078c13.414,10.994,8.556,37.063,8.556,43.352c0,16.074-49.593-30.516-113.312-30.516
			c-63.723,0-114.14,44.291-114.14,28.217c0-6.098-7.803-28.965,4.895-39.617c20.785-17.445,69.684-34.459,109.245-34.459
			C193.695,589.055,238.723,604.947,259.637,622.078z"/>
	</g>
</g>
</svg>
