<?xml version="1.0" encoding="utf-8"?>
<!-- Generator: Adobe Illustrator 16.0.0, SVG Export Plug-In . SVG Version: 6.00 Build 0)  -->
<!DOCTYPE svg PUBLIC "-//W3C//DTD SVG 1.1//EN" "http://www.w3.org/Graphics/SVG/1.1/DTD/svg11.dtd">
<svg version="1.1" id="Layer_1" xmlns="http://www.w3.org/2000/svg" xmlns:xlink="http://www.w3.org/1999/xlink" x="0px" y="0px"
	 width="640px" height="480px" viewBox="0 0 640 480" enable-background="new 0 0 640 480" xml:space="preserve">
<title>grey t shirt template</title>
<g>
	<title>Layer 1</title>
	<path id="svg_28" fill="#FFFFFF" stroke="#FFFFFF" d="M69.477,120.04l1.619,4.163l9.371,54.223l1.301,80.513l-41.647,0.657
		L19.817,141.947L69.477,120.04z"/>
	<g id="layer2">
		<path id="path1982" fill="#3F3F3F" fill-opacity="0.75" stroke="#000000" d="M173.823,99.547c0,0-10.993,9.237-23.818,9.237
			c-12.324,0-21.339-7.849-22.031-8.468c-0.071,1.279-0.336,7.039,0.114,14.356c5.021,3.175,12.428,6.428,21.826,6.428
			c10.267,0,18.843-3.874,24.391-7.274c0.169-7.624-0.363-13.194-0.39-13.472C173.813,99.875,173.823,99.547,173.823,99.547z
			 M174.006,100.702c0.063,0.231,0.162,0.486,0.274,0.77C174.167,101.183,174.07,100.937,174.006,100.702z M174.716,102.396
			c0.18,0.329,0.406,0.68,0.665,1.039C175.123,103.074,174.895,102.726,174.716,102.396z M175.38,103.435
			c0.25,0.349,0.532,0.71,0.87,1.078C175.913,104.145,175.63,103.785,175.38,103.435z M120.713,108.746l-0.023,0.039
			c0,0,0.021,0.039,0.023,0.039C120.711,108.797,120.715,108.771,120.713,108.746z"/>
		<path id="path1984" fill="#3F3F3F" fill-opacity="0.75" stroke="#000000" d="M127.836,100.202c0,0-1.133,3.522-3.481,5.503
			c-3.432,2.896-3.421,2.877-3.436,2.887h-0.068h-0.023l-0.114,0.153c2.906,38.952,12.802,58.543,31.124,58.543
			c30.308,0,29.386-54.983,29.314-57.965l-0.526-0.039c0.312-0.273,0.526-0.5,0.526-0.5s0,0-3.664-3.079
			c-2.291-1.924-3.159-3.831-3.481-5.003c-0.024-0.087-0.028-0.153-0.046-0.231v-0.23l-0.046-0.039c0,0,5.405,54.77-22.077,54.77
			c-26.373,0-24.094-50.533-23.864-54.655C127.933,100.283,127.836,100.202,127.836,100.202z"/>
		<path id="path2051" fill="#3F3F3F" fill-opacity="0.75" stroke="#000000" d="M120.782,108.631L73.054,127.26l9.161,52.346
			l3.664,267.887h130.083l-1.832-249.412l12.825-73.9l-45.804-15.396c0,0-0.214,0.227-0.526,0.5l0.526,0.039
			c0.071,2.982,0.994,57.965-29.314,57.965c-18.321,0-28.217-19.591-31.124-58.543L120.782,108.631z"/>
		<path id="path1994" fill="#3F3F3F" fill-opacity="0.75" stroke="#000000" d="M73.054,127.26l-48.872,31.138l16.581,94.723
			l42.414-2.771v-0.039l-0.962-70.705L73.054,127.26z"/>
		<path id="path1996" fill="#3F3F3F" fill-opacity="0.75" stroke="#000000" d="M226.933,124.257l-12.802,73.824l0.389,52.115
			l46.354-2.502l12.825-98.264L226.933,124.257z"/>
		<path id="path2004" fill="#3F3F3F" fill-opacity="0.75" stroke="#000000" d="M24.182,158.397l-4.26,2.733l14.658,92.375
			l6.184-0.385L24.182,158.397z"/>
		<path id="path2009" fill="#3F3F3F" fill-opacity="0.75" stroke="#000000" d="M273.698,149.43l-12.825,98.264l6.39-0.347
			l10.993-95.454L273.698,149.43z"/>
		<path id="path2022" fill="#3F3F3F" fill-opacity="0.75" stroke="#000000" d="M181.151,108.784c0,0-0.214,0.227-0.526,0.5
			l0.343,0.039l0.206-0.539H181.151z M174.281,113.827c-5.548,3.398-14.113,7.274-24.368,7.274c-9.385,0-16.782-3.257-21.803-6.428
			c0.996,16.268,5.524,40.299,23.727,40.299C170.408,154.972,173.931,130.04,174.281,113.827z"/>
		<path id="path2024" fill="#3F3F3F" fill-opacity="0.75" stroke="#000000" d="M514.604,108.786c0,0-0.004,0.009-3.665-3.08
			c-2.349-1.981-3.489-5.508-3.489-5.508s-9.336,8.587-22.161,8.587c-12.824,0-23.817-9.237-23.817-9.237s0,3.079-3.664,6.158
			c-3.665,3.08-3.665,3.08-3.665,3.08s12.907,12.316,31.228,12.316C503.692,121.102,514.563,108.637,514.604,108.786z"/>
		<path id="path2028" fill="#3F3F3F" fill-opacity="0.75" stroke="#000000" d="M514.375,108.592c0.002,0,0.229,0.192,0.229,0.192
			c-0.041-0.149-10.902,12.317-29.225,12.317c-18.32,0-31.237-12.317-31.237-12.317l-45.804,15.396l12.825,73.9l-1.832,249.412
			h130.083l3.664-267.887l9.161-52.346L514.375,108.592z M487.877,108.669l-4.512,0.038c0.639,0.045,1.276,0.077,1.924,0.077
			C486.171,108.784,487.029,108.745,487.877,108.669z"/>
		<path id="path2030" fill="#3F3F3F" fill-opacity="0.75" stroke="#000000" d="M562.24,127.26l48.873,31.138l-16.582,94.723
			l-42.414-2.771v-0.039l0.962-70.705L562.24,127.26z"/>
		<path id="path2032" fill="#3F3F3F" fill-opacity="0.75" stroke="#000000" d="M408.361,124.257l12.803,73.824l-0.39,52.115
			l-46.354-2.502l-12.825-98.264L408.361,124.257z"/>
		<path id="path2034" fill="#3F3F3F" fill-opacity="0.75" stroke="#000000" d="M611.113,158.397l4.26,2.733l-14.658,92.375
			l-6.184-0.385L611.113,158.397z"/>
		<path id="path2036" fill="#3F3F3F" fill-opacity="0.75" stroke="#000000" d="M361.596,149.43l12.825,98.264l-6.389-0.347
			l-10.994-95.454L361.596,149.43z"/>
	</g>
	<rect id="svg_4" x="180.159" y="12.799" fill="#FFFFFF" stroke="#1B26F7" width="0" height="1.314"/>
	<polygon id="svg_5" fill="#FFFFFF" stroke="#1B26F7" points="181.721,14.113 182.242,14.113 182.242,14.113 	"/>
	<rect id="svg_6" x="181.2" y="36.459" fill="#FFFFFF" stroke="#1B26F7" width="0" height="0.657"/>
	<polygon id="svg_7" fill="#FFFFFF" stroke="#1B26F7" points="184.845,39.089 188.489,39.089 188.489,39.089 	"/>
	<ellipse id="svg_17" fill="#FFFFFF" stroke="#1B26F7" cx="342.374" cy="29.493" rx="0" ry="0.92"/>
	<path id="svg_18" fill="#FFFFFF" stroke="#FFFFFF" d="M23.648,151.346l18.971,105.685l-9.996,2.104L14.299,156.078L23.648,151.346z
		"/>
	<path id="svg_20" fill="#FFFFFF" stroke="#FFFFFF" d="M69.477,120.04l1.619,4.163l9.371,54.223l1.301,80.513l-41.647,0.657
		L19.817,141.947L69.477,120.04z"/>
	<path id="svg_21" fill="#707070" stroke="#000000" d="M73.902,126.94c-18.636,13.218-34.408,30.379-48.878,49.841l-8.33,75.254
		l6.507,117.318h30.455l4.425-117.318l24.728-46.665l-1.041-31.548c-1.311-7.759-2.622-15.601-3.933-23.442
		C76.523,142.541,75.213,134.7,73.902,126.94z"/>
	<path id="svg_22" fill="#FFFFFF" stroke="#FFFFFF" d="M232.942,116.425l-4.889,6.462l-13.275,75.255l0.26,58.167l64.553-0.986
		l16.139-112.717L232.942,116.425z"/>
	<path id="svg_27" fill="#707070" stroke="#000000" d="M223.565,122.34c18.929,13.218,34.95,30.379,49.648,49.841l8.46,75.255
		l-6.61,117.318H244.13l-4.495-117.318l-25.118-46.665l1.058-31.548c1.332-7.759,2.664-15.601,3.995-23.442
		C220.902,137.94,222.234,130.099,223.565,122.34z"/>
	<path id="svg_29" fill="#FFFFFF" stroke="#FFFFFF" d="M401.938,108.816l4.679,11.113l12.494,76.898l-0.521,70.325l-53.1-5.915
		l-17.7-134.078L401.938,108.816z"/>
	<path id="svg_24" fill="#707070" stroke="#000000" d="M412.286,122.34c-18.636,13.218-34.408,30.379-48.879,49.841l-8.329,75.255
		l6.507,117.318h30.455l4.425-117.318l24.729-46.665l-1.042-31.548c-1.312-7.759-2.623-15.601-3.933-23.442
		C414.907,137.94,413.596,130.099,412.286,122.34z"/>
	<path id="svg_30" fill="#FFFFFF" stroke="#FFFFFF" d="M565.165,119.989l-11.222,59.75l-1.562,72.954l53.101,6.572L621.1,150.82
		L565.165,119.989z"/>
	<path id="svg_25" fill="#707070" stroke="#000000" d="M561.949,126.94c18.929,13.218,34.949,30.379,49.647,49.841l8.462,75.254
		l-6.611,117.318h-30.933l-4.496-117.318l-25.116-46.665l1.058-31.548c1.332-7.759,2.662-15.601,3.994-23.442
		C559.285,142.541,560.617,134.7,561.949,126.94z"/>
	<line id="svg_31" fill="none" stroke="#000000" stroke-linecap="round" x1="213.716" y1="200.651" x2="213.716" y2="200.651"/>
	<path id="svg_32" fill="none" stroke="#000000" d="M319.397,148.072"/>
	<path id="svg_33" fill="none" stroke="#000000" d="M314.972,239.429"/>
	<line id="svg_35" fill="none" stroke="#000000" x1="213.716" y1="200.651" x2="214.497" y2="258.817"/>
	<line id="svg_36" fill="none" stroke="#000000" x1="552.786" y1="206.238" x2="552.006" y2="254.546"/>
	<line id="svg_37" fill="none" stroke="#FFFFFF" x1="420.036" y1="203.938" x2="419.516" y2="252.245"/>
	<line id="svg_38" fill="none" stroke="#FFFFFF" x1="81.486" y1="208.867" x2="82.268" y2="252.902"/>
</g>
</svg>
