<?xml version="1.0" encoding="utf-8"?>
<!-- Generator: Adobe Illustrator 16.0.0, SVG Export Plug-In . SVG Version: 6.00 Build 0)  -->
<!DOCTYPE svg PUBLIC "-//W3C//DTD SVG 1.1//EN" "http://www.w3.org/Graphics/SVG/1.1/DTD/svg11.dtd">
<svg version="1.1" id="Layer_1" xmlns="http://www.w3.org/2000/svg" xmlns:xlink="http://www.w3.org/1999/xlink" x="0px" y="0px"
	 width="612px" height="792px" viewBox="0 0 612 792" enable-background="new 0 0 612 792" xml:space="preserve">
<path id="shirtBody" fill="#EE2834" stroke="#010101" d="M71.204,366.872c0,0-31.257-4.508-49.256-15.566
	c-8.526-6.966-8.526-9.219-8.526-9.219s4.926-21.712,7.199-47.727c2.275-26.013,6.064-41.99,14.401-53.667
	c2.272-5.531,15.156-9.012,36.184-21.302c21.032-12.291,38.459-22.531,38.459-22.531s-2.652,23.146,38.46,37.484
	c0,0,34.667,8.193,58.92-13.315c0,0,20.083-19.665,10.608-25.194c16.295,8.193,72.752,39.738,72.752,39.738
	s16.484,25.194,16.484,47.931c0,22.735-2.464,28.063-0.383,34.208c2.086,6.146,2.086,10.242,0.759,12.495
	c-1.324,2.252-3.6,2.868-3.22,9.627c0.38,6.758-0.38,13.518-0.38,13.518s-12.126,11.674-30.312,15.362
	c-17.05,3.484-21.977,4.097-21.977,4.097s1.138,25.195,0.566,39.124c-0.566,13.927-3.411,26.214-3.6,39.528
	c-0.189,13.314-1.892,26.425-0.948,28.064c0.948,1.638,6.443,36.254,10.801,52.846c4.359,16.593,3.41,40.148,3.979,47.318
	c0.566,7.169,2.841,28.883,2.841,28.883s-22.734,17.199-87.529,13.309c-42.251-3.276-77.869-5.737-99.276-8.604
	c-21.408-2.866-33.533-6.956-34.292-8.598c4.168-18.025,8.526-40.146,9.663-46.295c1.135-6.146,3.787-27.86,6.631-37.89
	c2.841-10.037,5.493-31.546,7.578-40.762c2.083-9.218,2.841-29.291,2.651-50.184C70.248,407.613,71.755,407.876,71.204,366.872z"/>
<path fill="none" stroke="#010101" d="M35.168,240.746c0,0-2.646,10.275,11.928,44.161c14.575,33.887,23.918,53.25,23.918,53.25
	s-0.25,19.912,0.436,28.916"/>
<path fill="none" stroke="#010101" d="M297.093,246.986c0,0-9.384,52.132-44.885,88.035c0,0,1.553,30.025-0.102,38"/>
<path id="coller" fill="#EE2834" stroke="#010101" d="M207.655,221.06c-24.316,21.533-59.08,13.331-59.08,13.331
	c-41.222-14.355-38.56-37.528-38.56-37.528s-3.862,2.264-10.142,5.941c1.63,13.436,10.392,40.138,63.224,44.116
	c46.386,3.494,63.774-30.379,68.839-43.912c-5.62-3.018-10.42-5.551-13.644-7.17C227.792,201.371,207.655,221.06,207.655,221.06z"/>
<path fill="#EE2834" stroke="#010101" d="M70.913,356.869c0,0-12.561-1.336-32.814-8.02c-14.883-4.911-20.975-10.747-23.162-13.498
	c-0.851,4.373-1.427,6.907-1.427,6.907s0,2.256,8.55,9.229c17.265,10.595,46.693,15.183,49.209,15.56
	C71.401,363.559,70.913,356.869,70.913,356.869z"/>
<path fill="#EE2834" stroke="#010101" d="M305.002,345.878c-4.329,2.641-26.958,15.891-52.354,20.597c0,0-0.228,3.797-0.276,6.509
	c1.219-0.173,6.886-1.032,21.769-4.067c18.235-3.693,30.394-15.38,30.394-15.38S304.911,350.206,305.002,345.878z"/>
<path fill="#EE2834" stroke="#010101" d="M265.15,602.977c-0.115-0.045-0.178-0.067-0.178-0.067s-69.785,30.955-219.032-5.919
	c-0.613,2.771-1.232,5.518-1.85,8.175c0.761,1.643,12.919,5.743,34.383,8.614c21.467,2.869,57.18,5.332,99.542,8.606
	c64.968,3.896,87.764-13.325,87.764-13.325S265.521,606.56,265.15,602.977z"/>
<path id="shirtBody_1_" fill="#EE2834" stroke="#010101" d="M335.63,239.467c0,0,40.301-22.997,48.029-29.213
	c7.735-6.216,25.676-17.716,25.676-17.716s10.486,4.153,32.338,4.477c21.854,0.322,64.042-0.107,64.042-0.107
	s16.605,9.887,35.979,21.92c19.369,12.035,32.734,19.45,34.926,22.673c2.194,3.223,15.847,23.747,18.324,49.428
	c0,0,2.863,40.358,4.413,46.468c1.548,6.108,4.129,13.961,4.129,13.961s-17.047,6.108-28.937,6.981
	c-11.883,0.872-25.316,9.018-25.316,9.018s-1.295,0.581-4.135,39.852c-2.843,39.27-2.843,67.188-2.327,72.429
	c0.519,5.236,5.943,8.146,10.853,45.377c4.909,37.233,4.394,57.597,6.719,62.83c2.324,5.237,6.975,23.563,0,24.435
	c-9.042-0.871-27.388,4.945-30.486,6.686c-3.1,1.744-30.744,5.526-44.18,4.369c-13.435-1.163-66.138-1.745-72.345-2.037
	c-6.2-0.296-29.703-4.364-35.39-5.821c-5.688-1.455-15.759-3.782-17.83-7.563c-2.067-3.78-4.391-6.686,0.518-21.526
	c4.907-14.831,4.649-30.542,8.007-68.065c3.361-37.523,5.427-58.759,5.427-74.753c0-16.004,0.775-27.633-0.774-43.924
	c-1.55-16.29-6.718-30.251-6.718-30.251s-2.325-4.946-25.838-10.762c-13.434-1.744-27.898-2.618-26.352-7.854
	c1.547-5.237,5.422-19.489,4.129-28.217C317.238,313.833,319.405,268.945,335.63,239.467z"/>
<path fill="#D71F27" d="M338.27,290.083c-7.117-19.702-0.193-44.167-0.193-44.167c-16.153,33.775,9.806,67.33,9.806,67.33
	S345.382,309.782,338.27,290.083z M348.074,324.721c0,0-0.025-0.024-0.068-0.066C348.052,324.701,348.074,324.721,348.074,324.721z
	 M334.808,302.855c-10.576-19.485-6.538-32.908-6.538-32.908c-9.725,24.856,18.221,53.193,19.736,54.706
	C347.536,324.166,344.447,320.619,334.808,302.855z M332.115,345.721c-1.538-1.949-8.076-15.156-11.152-20.784
	C321.923,337.71,332.115,345.721,332.115,345.721z M579.798,250.594c0,0,6.492,22.793-0.384,42.361
	c-6.869,19.567-8.021,22.792-8.021,22.792S593.929,283.494,579.798,250.594z M586.672,273.172
	c3.244,24.943-17.194,51.393-17.194,51.393C588.392,306.5,589.537,283.923,586.672,273.172z M592.782,277.042
	c0,0,0,21.287-4.583,29.458c-4.585,8.173-7.828,12.473-7.828,12.473S597.561,309.298,592.782,277.042z M594.886,290.375
	c0,0-0.574,23.652-2.104,28.814C594.312,323.489,597.94,298.115,594.886,290.375z M597.368,320.047c0,0,0.954,13.118-2.298,18.063
	C598.896,338.971,600.042,325.854,597.368,320.047z"/>
<path id="coller_1_" fill="#EE2834" stroke="#010101" d="M507.461,196.907c0,0-42.188,0.429-64.045,0.107
	c-21.855-0.324-32.335-4.477-32.335-4.477s-4.191,2.688-9.397,6.165c8.93,2.206,23.279,5.159,42.096,7.077
	c28.165,2.872,62.403-2.091,72.303-3.692C510.743,198.86,507.461,196.907,507.461,196.907z"/>
<path fill="#EE2834" stroke="#010101" d="M562.098,612.278c4.06-0.508,4.176-6.95,3.107-13.27
	c-10.381,2.663-51.447,12.585-85.96,12.083c-39.171-0.568-104.177,0.537-118.345-19.766c-2.85,10.622-0.845,13.271,0.97,16.59
	c2.072,3.782,12.143,6.108,17.832,7.563c5.683,1.459,29.188,5.526,35.389,5.822c6.206,0.291,58.909,0.871,72.344,2.036
	c13.436,1.162,41.078-2.619,44.179-4.369C534.713,617.224,553.055,611.407,562.098,612.278z"/>
<path fill="none" stroke="#010101" d="M320.277,322.561c1.293,8.726-2.582,22.979-4.128,28.216
	c-1.55,5.236,12.92,6.108,26.354,7.855c23.508,5.818,25.834,10.762,25.834,10.762c0.76,0.627-2.106-23.369-3.991-28.523
	c-1.89-5.154-3.77-5.154-4.042-7.58c-0.269-2.426-6.195-6.063-9.426-12.431c-3.232-6.366-5.11-22.738-4.848-35.472
	c0.249-11.701-6.327-41.834-7.389-46.64c-0.807,0.462-1.258,0.72-1.258,0.72C321.156,268.945,318.987,313.833,320.277,322.561z"/>
<path fill="#EE2834" stroke="#010101" d="M333.21,351.157c-5.335-0.428-11.915-4.219-15.409-6.473
	c-0.623,2.512-1.229,4.645-1.656,6.089c-1.549,5.236,12.917,6.108,26.351,7.854c23.512,5.818,25.838,10.763,25.838,10.763
	c0.286,0.237,0.055-3.043-0.446-7.496C359.558,353.058,340.205,351.721,333.21,351.157z"/>
<path fill="#EE2834" stroke="#010101" d="M605.242,351.357c0,0-0.664-2.022-1.523-4.812c-3.381,1.004-9.676,2.457-20.071,3.346
	c-13.209,1.128-25.336,3.625-31.718,8.341c-0.608,3.336-1.098,6.745-1.068,9.411c0.088-0.268,0.134-0.288,0.134-0.288
	s13.434-8.146,25.316-9.018C588.19,357.465,605.242,351.357,605.242,351.357z"/>
<path fill="none" stroke="#010101" d="M596.694,290.928c-2.483-25.681-16.13-46.205-18.325-49.428
	c-0.144-0.214-0.334-0.444-0.572-0.691c-0.44,8.67-1.122,20.477-2.075,32.757c-1.885,24.253-9.959,46.385-13.732,51.842
	c-3.772,5.457-3.768,11.825-5.925,13.644c-2.153,1.818-2.153,3.638-2.153,7.579c0,3.361-3.133,14.44-3.058,21.013
	c0.089-0.268,0.137-0.288,0.137-0.288s13.434-8.146,25.317-9.018c11.888-0.874,28.936-6.981,28.936-6.981s-2.584-7.854-4.128-13.961
	C599.56,331.287,596.694,290.928,596.694,290.928z"/>
</svg>
