<?xml version="1.0" encoding="utf-8"?>
<!-- Generator: Adobe Illustrator 16.0.0, SVG Export Plug-In . SVG Version: 6.00 Build 0)  -->
<!DOCTYPE svg PUBLIC "-//W3C//DTD SVG 1.1//EN" "http://www.w3.org/Graphics/SVG/1.1/DTD/svg11.dtd">
<svg version="1.1" id="Layer_1" xmlns="http://www.w3.org/2000/svg" xmlns:xlink="http://www.w3.org/1999/xlink" x="0px" y="0px"
	 width="640px" height="480px" viewBox="0 0 640 480" enable-background="new 0 0 640 480" xml:space="preserve">
<title>White Shorts</title>
<g>
	<title>Layer 1</title>
	<path id="svg_1" fill="#FFFFFF" stroke="#000000" stroke-width="2" d="M162.755,71.333c129.311,7.154,172.081,7.531,293.934,1.129
		c25.363,43.492,31.332,91.501,44.761,133.863c16.412,44.622,6.465,109.576,13.925,154.197
		c-77.585,20.711-78.581,20.71-159.151,1.883c-6.963-60.247-19.396-126.896-41.28-174.719
		c-22.877,49.328-39.29,124.261-39.788,175.849c-81.564,16.191-83.056,16.191-166.114,0.752
		c4.476-45.185,11.937-115.6,17.905-160.786C134.406,159.445,138.882,115.39,162.755,71.333z"/>
	<path id="svg_2" fill="none" stroke="#000000" d="M155.294,89.031c105.438,9.037,204.908,8.472,307.362-1.694"/>
	<path id="svg_3" fill="none" stroke="#000000" d="M276.896,76.605c-7.958,6.025-8.455,13.179-1.492,18.074"/>
	<g id="svg_10">
		<ellipse id="svg_5" fill="#3F3F3F" stroke="#191919" stroke-width="2" cx="288.299" cy="86.126" rx="8.7" ry="6.587"/>
		
			<line id="svg_6" fill="none" stroke="#191919" stroke-width="2" stroke-linecap="round" x1="286.38" y1="84.835" x2="286.809" y2="84.835"/>
		<polyline id="svg_7" fill="none" stroke="#191919" stroke-width="2" stroke-linecap="round" points="291.07,85.158 
			291.497,85.158 291.922,85.158 		"/>
		
			<line id="svg_8" fill="none" stroke="#191919" stroke-width="2" stroke-linecap="round" x1="285.955" y1="88.386" x2="286.38" y2="88.386"/>
		<polyline id="svg_9" fill="none" stroke="#191919" stroke-width="2" stroke-linecap="round" points="291.07,88.386 
			291.497,88.386 291.922,88.386 		"/>
	</g>
	<path id="svg_11" fill="none" stroke="#000000" d="M292.861,95.658c-3.515,19.097-2.255,36.623,1.989,54.147"/>
	<path id="svg_12" fill="none" stroke="#000000" d="M313.152,148.375c-5.378,2.736-12.798,2.761-19.197,0.753"/>
	<path id="svg_15" fill="none" stroke="#000000" stroke-width="2" d="M196.574,111.247c-6.796,23.347-32.99,32.007-59.683,36.902"/>
	<path id="svg_16" fill="none" stroke="#000000" stroke-width="2" d="M409.439,112.189c8.609,23.346,41.789,32.007,75.598,36.901"/>
</g>
</svg>
