<?xml version="1.0" encoding="utf-8"?>
<!-- Generator: Adobe Illustrator 16.0.0, SVG Export Plug-In . SVG Version: 6.00 Build 0)  -->
<!DOCTYPE svg PUBLIC "-//W3C//DTD SVG 1.1//EN" "http://www.w3.org/Graphics/SVG/1.1/DTD/svg11.dtd">
<svg version="1.1" id="Layer_1" xmlns="http://www.w3.org/2000/svg" xmlns:xlink="http://www.w3.org/1999/xlink" x="0px" y="0px"
	 width="612px" height="792px" viewBox="0 0 612 792" enable-background="new 0 0 612 792" xml:space="preserve">
<path id="shirtBody" fill="#EE2834" stroke="#010101" d="M104.749,358.348c0,0-20.607-2.748-32.473-9.492
	c-5.621-4.247-5.621-5.621-5.621-5.621s3.248-13.24,4.746-29.103c1.5-15.862,3.998-25.604,9.494-32.724
	c1.498-3.373,9.992-5.496,23.855-12.99c13.865-7.494,25.355-13.739,25.355-13.739s-1.748,14.114,25.355,22.857
	c0,0,22.855,4.996,38.844-8.119c0,0,13.24-11.991,6.994-15.363c10.742,4.996,47.963,24.231,47.963,24.231
	s10.867,15.363,10.867,29.227c0,13.864-1.625,17.112-0.252,20.859c1.375,3.747,1.375,6.245,0.5,7.619
	c-0.873,1.374-2.373,1.749-2.123,5.871c0.25,4.121-0.25,8.243-0.25,8.243s-7.994,7.118-19.984,9.367
	c-11.24,2.124-14.488,2.498-14.488,2.498s0.75,15.363,0.373,23.856c-0.373,8.493-2.248,15.985-2.373,24.104
	c-0.125,8.119-1.248,16.113-0.625,17.113c0.625,0.998,4.248,22.105,7.121,32.223c2.873,10.118,2.248,24.482,2.623,28.854
	c0.373,4.371,1.873,17.611,1.873,17.611s-14.988,10.489-57.705,8.116c-27.854-1.998-51.336-3.498-65.449-5.246
	c-14.113-1.748-22.107-4.243-22.607-5.243c2.748-10.992,5.621-24.48,6.371-28.229c0.748-3.748,2.496-16.988,4.371-23.104
	c1.873-6.121,3.621-19.236,4.996-24.855c1.373-5.621,1.873-17.861,1.748-30.601C104.118,383.191,105.113,383.351,104.749,358.348z"
	/>
<path fill="none" stroke="#010101" d="M80.953,281.408c0,0-1.739,6.258,7.843,26.897c9.583,20.639,15.726,32.432,15.726,32.432
	s-0.165,12.127,0.286,17.611"/>
<path fill="none" stroke="#010101" d="M253.17,285.209c0,0-6.171,31.751-29.513,53.618c0,0,1.021,18.287-0.067,23.144"/>
<path id="coller" fill="#EE2834" stroke="#010101" d="M194.364,269.418c-15.988,13.115-38.845,8.119-38.845,8.119
	c-27.104-8.743-25.354-22.857-25.354-22.857s-2.539,1.379-6.668,3.619c1.072,8.183,6.833,24.446,41.57,26.869
	c30.499,2.128,41.932-18.503,45.262-26.745c-3.695-1.838-6.851-3.381-8.971-4.367C207.604,257.427,194.364,269.418,194.364,269.418z
	"/>
<path fill="#EE2834" stroke="#010101" d="M104.455,352.134c0,0-8.258-0.814-21.575-4.885c-9.786-2.991-13.791-6.545-15.229-8.221
	c-0.559,2.663-0.938,4.207-0.938,4.207s0,1.374,5.621,5.621c11.352,6.453,30.701,9.247,32.355,9.477
	C104.777,356.208,104.455,352.134,104.455,352.134z"/>
<path fill="#EE2834" stroke="#010101" d="M258.37,345.44c-2.847,1.608-17.725,9.678-34.423,12.545c0,0-0.15,2.313-0.182,3.964
	c0.802-0.105,4.528-0.628,14.313-2.477c11.99-2.249,19.984-9.367,19.984-9.367S258.31,348.075,258.37,345.44z"/>
<path fill="#EE2834" stroke="#010101" d="M232.167,502.027c-0.076-0.027-0.117-0.041-0.117-0.041s-45.884,18.854-144.014-3.605
	c-0.403,1.688-0.811,3.361-1.216,4.979c0.5,1,8.494,3.498,22.607,5.246c14.114,1.747,37.596,3.247,65.449,5.243
	c42.717,2.373,57.705-8.116,57.705-8.116S232.41,504.209,232.167,502.027z"/>
<path id="shirtBody_1_" fill="#EE2834" stroke="#010101" d="M351.171,281.27c0,0,28.745-14.569,34.258-18.507
	c5.517-3.938,18.313-11.223,18.313-11.223s7.479,2.631,23.064,2.836c15.59,0.204,45.68-0.068,45.68-0.068
	s11.845,6.263,25.662,13.887c13.816,7.624,23.349,12.321,24.912,14.363c1.565,2.042,11.303,15.044,13.07,31.313
	c0,0,2.043,25.567,3.148,29.437c1.104,3.87,2.945,8.845,2.945,8.845s-12.159,3.87-20.639,4.422
	c-8.477,0.553-18.059,5.713-18.059,5.713s-0.922,0.368-2.948,25.246c-2.027,24.877-2.027,42.564-1.659,45.884
	c0.369,3.317,4.238,5.16,7.74,28.747c3.501,23.587,3.133,36.486,4.791,39.803c1.658,3.317,4.976,14.927,0,15.479
	c-6.449-0.553-19.533,3.133-21.744,4.235c-2.212,1.105-21.929,3.501-31.512,2.768c-9.582-0.737-47.174-1.105-51.6-1.29
	c-4.423-0.188-21.188-2.766-25.243-3.688c-4.057-0.922-11.24-2.396-12.717-4.791c-1.475-2.395-3.133-4.236,0.368-13.637
	c3.501-9.396,3.316-19.349,5.712-43.12c2.396-23.771,3.87-37.224,3.87-47.356c0-10.138,0.553-17.505-0.553-27.825
	c-1.105-10.32-4.791-19.165-4.791-19.165s-1.659-3.133-18.428-6.818c-9.582-1.105-19.901-1.658-18.797-4.976
	c1.104-3.317,3.868-12.346,2.946-17.875C338.052,328.381,339.599,299.945,351.171,281.27z"/>
<path fill="#D71F27" d="M353.053,313.335c-5.075-12.481-0.138-27.979-0.138-27.979c-11.521,21.396,6.994,42.653,6.994,42.653
	S358.127,325.815,353.053,313.335z M360.047,335.279c0,0-0.019-0.016-0.048-0.042C360.031,335.266,360.047,335.279,360.047,335.279z
	 M350.584,321.427c-7.543-12.344-4.663-20.847-4.663-20.847c-6.938,15.746,12.996,33.698,14.078,34.656
	C359.663,334.927,357.46,332.68,350.584,321.427z M348.663,348.582c-1.097-1.234-5.76-9.601-7.954-13.166
	C341.394,343.508,348.663,348.582,348.663,348.582z M525.327,288.319c0,0,4.631,14.44-0.273,26.836
	c-4.9,12.396-5.721,14.439-5.721,14.439S535.407,309.161,525.327,288.319z M530.231,302.622
	c2.313,15.802-12.264,32.557-12.264,32.557C531.457,323.736,532.274,309.433,530.231,302.622z M534.59,305.074
	c0,0,0,13.486-3.27,18.662c-3.271,5.177-5.585,7.901-5.585,7.901S537.996,325.508,534.59,305.074z M536.089,313.52
	c0,0-0.409,14.984-1.499,18.254C535.68,334.498,538.268,318.424,536.089,313.52z M537.859,332.318c0,0,0.681,8.31-1.638,11.443
	C538.949,344.306,539.767,335.996,537.859,332.318z"/>
<path id="coller_1_" fill="#EE2834" stroke="#010101" d="M473.731,254.308c0,0-30.091,0.272-45.68,0.068
	c-15.589-0.205-23.064-2.836-23.064-2.836s-2.99,1.703-6.702,3.906c6.368,1.397,16.604,3.268,30.025,4.483
	c20.089,1.819,44.509-1.325,51.571-2.339C476.073,255.546,473.731,254.308,473.731,254.308z"/>
<path fill="#EE2834" stroke="#010101" d="M512.702,517.447c2.897-0.322,2.979-4.403,2.217-8.407
	c-7.404,1.688-36.695,7.974-61.313,7.655c-27.939-0.36-74.305,0.341-84.411-12.521c-2.033,6.729-0.602,8.407,0.692,10.51
	c1.477,2.396,8.66,3.869,12.718,4.791c4.054,0.924,20.819,3.501,25.242,3.688c4.426,0.185,42.018,0.553,51.6,1.29
	c9.583,0.736,29.3-1.659,31.512-2.768C493.169,520.58,506.253,516.895,512.702,517.447z"/>
<path fill="none" stroke="#010101" d="M340.221,333.91c0.922,5.528-1.843,14.558-2.945,17.875c-1.105,3.317,9.214,3.87,18.796,4.976
	c16.769,3.686,18.428,6.818,18.428,6.818c0.541,0.398-1.502-14.804-2.847-18.069c-1.347-3.265-2.688-3.265-2.883-4.802
	c-0.191-1.537-4.418-3.841-6.723-7.875c-2.306-4.033-3.646-14.405-3.457-22.471c0.177-7.413-4.513-26.502-5.271-29.547
	c-0.575,0.293-0.896,0.456-0.896,0.456C340.847,299.945,339.3,328.381,340.221,333.91z"/>
<path fill="#EE2834" stroke="#010101" d="M349.444,352.026c-3.804-0.271-8.498-2.673-10.99-4.1
	c-0.445,1.591-0.877,2.942-1.182,3.857c-1.105,3.317,9.214,3.87,18.796,4.976c16.769,3.686,18.428,6.818,18.428,6.818
	c0.204,0.15,0.04-1.928-0.317-4.749C368.237,353.23,354.434,352.383,349.444,352.026z"/>
<path fill="#EE2834" stroke="#010101" d="M543.476,352.153c0,0-0.474-1.281-1.086-3.048c-2.411,0.636-6.903,1.556-14.317,2.119
	c-9.422,0.715-18.071,2.297-22.624,5.285c-0.432,2.113-0.783,4.272-0.761,5.961c0.063-0.169,0.094-0.182,0.094-0.182
	s9.582-5.16,18.059-5.713C531.313,356.022,543.476,352.153,543.476,352.153z"/>
<path fill="none" stroke="#010101" d="M537.379,313.871c-1.771-16.269-11.505-29.271-13.07-31.313
	c-0.103-0.135-0.24-0.281-0.41-0.438c-0.313,5.493-0.799,12.973-1.479,20.752c-1.344,15.365-7.104,29.385-9.795,32.842
	s-2.688,7.491-4.226,8.643c-1.536,1.152-1.536,2.305-1.536,4.801c0,2.13-2.234,9.148-2.18,13.312
	c0.063-0.169,0.096-0.182,0.096-0.182s9.582-5.16,18.059-5.713c8.479-0.553,20.639-4.422,20.639-4.422s-1.842-4.976-2.945-8.845
	C539.422,339.438,537.379,313.871,537.379,313.871z"/>
</svg>
